# xmcd
#
# Track frame offsets:
#	150
#	17070
#	30555
#	42962
#	61102
#	75625
#	91745
#	114535
#	128652
#	144742
#	163867
#
# Disc length: 2511 seconds
#
# Revision: 0
# Processed by: cddbd v1.5.1PL0 Copyright (c) Steve Scherf et al.
# Submitted via: dBpowerAMP V4.0
#
DISCID=8509cd0b
DTITLE=End Of Fashion - End Of Fashion
DYEAR=2005
DGENRE=Alternative
TTITLE0=She's Love
TTITLE1=O Yeah
TTITLE2=The Game
TTITLE3=Anymore
TTITLE4=Too Careful
TTITLE5=Love Comes In
TTITLE6=In Denial
TTITLE7=Oh Strain
TTITLE8=Lock Up Your Daughters
TTITLE9=Rough Diamonds
TTITLE10=Seize The Day
EXTD=
EXTT0=
EXTT1=
EXTT2=
EXTT3=
EXTT4=
EXTT5=
EXTT6=
EXTT7=
EXTT8=
EXTT9=
EXTT10=
PLAYORDER=
